<svg xmlns="http://www.w3.org/2000/svg" viewBox="0 0 591.23 150.35"><defs><style>.a{fill:#f05a28;}.b{fill:#384053;}</style></defs><title>Untitled-2</title><rect class="a" x="247.79" y="139.05" width="92.55" height="11.29"/><rect class="b" x="178.26" y="1.28" width="23.28" height="95.12"/><path class="b" d="M360.4,58.2h16.19V74.25s-11.33,13.89-29.81,13.89c-21.58,0-37.63-17.27-37.63-40.6,0-22.53,15.51-40.2,38.44-40.2a46.64,46.64,0,0,1,28.33,9.44l5-7S369.17-1.28,347.18-1.28c-27.25,0-47.75,21.58-47.75,49,0,28.19,20.5,49.1,46.4,49.1A42.38,42.38,0,0,0,376.72,84H377s-0.13,2-.13,4v7.15h8.63V49.84H360.4V58.2Z" transform="translate(0 1.28)"/><path class="b" d="M443.87,53.21V52.94c10.66-3,17.94-12.82,17.94-25.63,0-11.46-5.4-20.51-14.3-24.42-3.78-1.62-8.1-2.56-17.81-2.56H401.65V95.16H411V55.23h23.87l21.45,39.93h10.66L446.3,57A36.68,36.68,0,0,0,443.87,53.21Zm-10.39-6.34H411V8.7h19.15c7.29,0,10.65.81,13.49,2.29,5.53,3,8.63,8.77,8.63,16.59C452.23,39.45,444.95,46.87,433.48,46.87Z" transform="translate(0 1.28)"/><rect class="b" x="481.26" y="1.62" width="9.3" height="94.83"/><path class="b" d="M543.61,0.33H513V95.16h30.62c28.46,0,47.62-17.27,47.62-47.48C591.23,17.73,572.08.33,543.61,0.33Zm-0.94,86.46H522.3V8.7h20.37c23.2,0,38.85,13.76,38.85,39S566,86.79,542.67,86.79Z" transform="translate(0 1.28)"/><path class="b" d="M66.52,0l-17,54.14c-1.86,6-3.59,15.3-3.59,15.3H45.63S43.9,60.13,42,54.14L25.28,0H0L33.66,95.12H57.87L91.39,0H66.52Z" transform="translate(0 1.28)"/><path class="b" d="M126.55,21.61c-21.42,0-38.71,15.19-38.71,37.76s17.29,37.35,38.85,37.35,38.84-14.91,38.84-37.35S148.24,21.61,126.55,21.61Zm0.13,55c-8.38,0-15.57-6.55-15.57-17.28s7.19-17.7,15.57-17.7,15.56,6.83,15.56,17.7S135.07,76.65,126.69,76.65Z" transform="translate(0 1.28)"/><path class="b" d="M256.82,0H217.31V95.12h23.28V65.72h16.23c18.49,0,31-13.84,31-33S275.31,0,256.82,0ZM252,45.76H240.58V20h11.84c7.72,0,11.71,5.19,11.71,12.77S260.14,45.76,252,45.76Z" transform="translate(0 1.28)"/></svg>